<?xml version="1.0" encoding="UTF-8" standalone="no"?>
<!-- Created with Inkscape (http://www.inkscape.org/) -->

<svg
   xmlns:dc="http://purl.org/dc/elements/1.1/"
   xmlns:cc="http://creativecommons.org/ns#"
   xmlns:rdf="http://www.w3.org/1999/02/22-rdf-syntax-ns#"
   xmlns:svg="http://www.w3.org/2000/svg"
   xmlns="http://www.w3.org/2000/svg"
   xmlns:sodipodi="http://sodipodi.sourceforge.net/DTD/sodipodi-0.dtd"
   xmlns:inkscape="http://www.inkscape.org/namespaces/inkscape"
   width="113.77448mm"
   height="135.62674mm"
   viewBox="0 0 403.13787 480.56719"
   id="svg10381"
   version="1.1"
   inkscape:version="0.91 r13725"
   sodipodi:docname="atomo.svg">
  <defs
     id="defs10383">
    <clipPath
       id="clipPath3550"
       clipPathUnits="userSpaceOnUse">
      <path
         inkscape:connector-curvature="0"
         id="path3552"
         d="m 339.042,614.006 145.096,0 0,-363.661 -145.096,0 0,363.661 z" />
    </clipPath>
    <clipPath
       id="clipPath3570"
       clipPathUnits="userSpaceOnUse">
      <path
         inkscape:connector-curvature="0"
         id="path3572"
         d="m 251.823,554.04 319.55,0 0,-229.583 -319.55,0 0,229.583 z" />
    </clipPath>
    <clipPath
       id="clipPath3590"
       clipPathUnits="userSpaceOnUse">
      <path
         inkscape:connector-curvature="0"
         id="path3592"
         d="m 251.818,554.04 319.548,0 0,-229.583 -319.548,0 0,229.583 z" />
    </clipPath>
    <clipPath
       id="clipPath3610"
       clipPathUnits="userSpaceOnUse">
      <path
         inkscape:connector-curvature="0"
         id="path3612"
         d="m 386.628,474.362 59.289,0 0,-58.12 -59.289,0 0,58.12 z" />
    </clipPath>
    <clipPath
       id="clipPath3630"
       clipPathUnits="userSpaceOnUse">
      <path
         inkscape:connector-curvature="0"
         id="path3632"
         d="m 552.07,502.686 22.258,0 0,-21.822 -22.258,0 0,21.822 z" />
    </clipPath>
    <clipPath
       id="clipPath3650"
       clipPathUnits="userSpaceOnUse">
      <path
         inkscape:connector-curvature="0"
         id="path3652"
         d="m 491.165,344.235 20.791,0 0,-19.519 -20.791,0 0,19.519 z" />
    </clipPath>
    <clipPath
       id="clipPath3670"
       clipPathUnits="userSpaceOnUse">
      <path
         inkscape:connector-curvature="0"
         id="path3672"
         d="m 398.417,631.204 35.691,0 0,-34.992 -35.691,0 0,34.992 z" />
    </clipPath>
  </defs>
  <sodipodi:namedview
     id="base"
     pagecolor="#ffffff"
     bordercolor="#666666"
     borderopacity="1.0"
     inkscape:pageopacity="0.0"
     inkscape:pageshadow="2"
     inkscape:zoom="0.35"
     inkscape:cx="-156.28821"
     inkscape:cy="-48.287809"
     inkscape:document-units="px"
     inkscape:current-layer="layer1"
     showgrid="false"
     fit-margin-top="0"
     fit-margin-left="0"
     fit-margin-right="0"
     fit-margin-bottom="0"
     inkscape:window-width="1600"
     inkscape:window-height="837"
     inkscape:window-x="-8"
     inkscape:window-y="-8"
     inkscape:window-maximized="1" />
  <metadata
     id="metadata10386">
    <rdf:RDF>
      <cc:Work
         rdf:about="">
        <dc:format>image/svg+xml</dc:format>
        <dc:type
           rdf:resource="http://purl.org/dc/dcmitype/StillImage" />
        <dc:title></dc:title>
      </cc:Work>
    </rdf:RDF>
  </metadata>
  <g
     inkscape:label="Capa 1"
     inkscape:groupmode="layer"
     id="layer1"
     transform="translate(-4.1453495,-3.50717)">
    <g
       id="g10535">
      <g
         transform="translate(513.43084,-734.34788)"
         id="g9894">
        <g
           id="g3546"
           transform="matrix(1.25,0,0,-1.25,-824.05734,1531.3535)">
          <g
             id="g3548" />
          <g
             id="g3554">
            <g
               clip-path="url(#clipPath3550)"
               id="g3556"
               style="opacity:0.14999402">
              <g
                 transform="translate(411.5903,608.0059)"
                 id="g3558">
                <path
                   d="m 0,0 c -17.002,0 -33.907,-18.394 -46.381,-50.466 -13.005,-33.439 -20.167,-77.961 -20.167,-125.364 0,-47.403 7.162,-91.925 20.167,-125.365 12.474,-32.072 29.379,-50.466 46.381,-50.466 17.002,0 33.907,18.394 46.381,50.466 13.005,33.44 20.167,77.962 20.167,125.365 0,47.403 -7.162,91.925 -20.167,125.364 C 33.907,-18.394 17.002,0 0,0 m 0,-357.661 c -19.899,0 -38.356,19.281 -51.973,54.291 -13.268,34.117 -20.575,79.411 -20.575,127.54 0,48.129 7.307,93.424 20.575,127.539 C -38.356,-13.281 -19.899,6 0,6 c 19.899,0 38.356,-19.281 51.973,-54.291 13.268,-34.115 20.575,-79.41 20.575,-127.539 0,-48.129 -7.307,-93.423 -20.575,-127.54 C 38.356,-338.38 19.899,-357.661 0,-357.661"
                   style="fill:#000000;fill-opacity:1;fill-rule:nonzero;stroke:none"
                   id="path3560"
                   inkscape:connector-curvature="0" />
              </g>
            </g>
          </g>
        </g>
        <g
           id="g3562"
           transform="matrix(1.25,0,0,-1.25,-309.56946,766.8528)">
          <path
             d="m 0,0 c -17.002,0 -33.907,-18.394 -46.381,-50.466 -13.005,-33.439 -20.167,-77.961 -20.167,-125.364 0,-47.403 7.162,-91.925 20.167,-125.364 12.474,-32.073 29.379,-50.467 46.381,-50.467 17.002,0 33.907,18.394 46.381,50.467 13.005,33.439 20.167,77.961 20.167,125.364 0,47.403 -7.162,91.925 -20.167,125.364 C 33.907,-18.394 17.002,0 0,0 m 0,-357.661 c -19.899,0 -38.356,19.281 -51.973,54.292 -13.268,34.116 -20.575,79.41 -20.575,127.539 0,48.129 7.307,93.423 20.575,127.539 C -38.356,-13.281 -19.899,6 0,6 c 19.899,0 38.356,-19.281 51.973,-54.291 13.268,-34.116 20.575,-79.41 20.575,-127.539 0,-48.129 -7.307,-93.423 -20.575,-127.539 C 38.356,-338.38 19.899,-357.661 0,-357.661"
             style="fill:#0a3d54;fill-opacity:1;fill-rule:nonzero;stroke:none"
             id="path3564"
             inkscape:connector-curvature="0" />
        </g>
        <g
           id="g3566"
           transform="matrix(1.25,0,0,-1.25,-824.05734,1531.3535)">
          <g
             id="g3568" />
          <g
             id="g3574">
            <g
               clip-path="url(#clipPath3570)"
               id="g3576"
               style="opacity:0.14999402">
              <g
                 transform="translate(298.7017,550.0396)"
                 id="g3578">
                <path
                   d="m 0,0 c -18.878,0 -32.217,-5.091 -38.574,-14.722 -4.295,-6.506 -5.38,-14.908 -3.226,-24.973 7.676,-35.846 55.088,-86.739 117.98,-126.642 53.702,-34.077 111.029,-55.246 149.61,-55.246 18.878,0 32.217,5.092 38.576,14.723 4.295,6.505 5.381,14.907 3.226,24.971 -7.674,35.846 -55.087,86.741 -117.981,126.645 C 95.91,-21.168 38.583,0 0,0 m 225.79,-225.583 c -39.298,0 -97.446,21.408 -151.753,55.868 -31.866,20.218 -60.064,43.236 -81.547,66.563 -21.134,22.949 -34.343,44.603 -38.201,62.619 -2.388,11.154 -1.11,20.58 3.799,28.015 C -34.779,-1.712 -20.286,4 0,4 c 39.3,0 97.448,-21.407 151.754,-55.866 31.867,-20.219 60.065,-43.237 81.549,-66.566 21.134,-22.949 34.343,-44.603 38.2,-62.62 2.389,-11.153 1.11,-20.577 -3.799,-28.012 -7.135,-10.807 -21.629,-16.519 -41.914,-16.519"
                   style="fill:#000000;fill-opacity:1;fill-rule:nonzero;stroke:none"
                   id="path3580"
                   inkscape:connector-curvature="0" />
              </g>
            </g>
          </g>
        </g>
        <g
           id="g3582"
           transform="matrix(1.25,0,0,-1.25,-450.68022,839.3113)">
          <path
             d="m 0,0 c -18.878,0 -32.217,-5.091 -38.574,-14.722 -4.295,-6.506 -5.38,-14.908 -3.226,-24.973 7.676,-35.845 55.088,-86.739 117.98,-126.642 53.701,-34.077 111.028,-55.246 149.609,-55.246 18.878,0 32.218,5.091 38.577,14.723 4.295,6.506 5.381,14.907 3.226,24.971 -7.675,35.846 -55.088,86.741 -117.981,126.645 C 95.91,-21.168 38.583,0 0,0 m 225.789,-225.583 c -39.298,0 -97.446,21.407 -151.752,55.868 -31.866,20.218 -60.065,43.236 -81.547,66.564 -21.134,22.948 -34.343,44.602 -38.201,62.618 -2.388,11.154 -1.11,20.58 3.799,28.015 C -34.779,-1.712 -20.286,4 0,4 c 39.3,0 97.448,-21.407 151.754,-55.866 31.867,-20.218 60.065,-43.237 81.548,-66.565 21.135,-22.95 34.344,-44.603 38.201,-62.62 2.389,-11.154 1.11,-20.578 -3.799,-28.013 -7.135,-10.807 -21.629,-16.519 -41.915,-16.519"
             style="fill:#0a3d54;fill-opacity:1;fill-rule:nonzero;stroke:none"
             id="path3584"
             inkscape:connector-curvature="0" />
        </g>
        <g
           id="g3586"
           transform="matrix(1.25,0,0,-1.25,-824.05734,1531.3535)">
          <g
             id="g3588" />
          <g
             id="g3594">
            <g
               clip-path="url(#clipPath3590)"
               id="g3596"
               style="opacity:0.14999402">
              <g
                 transform="translate(524.4878,550.0396)"
                 id="g3598">
                <path
                   d="m 0,0 c -38.583,0 -95.91,-21.168 -149.61,-55.243 -62.893,-39.905 -110.306,-90.8 -117.981,-126.646 -2.155,-10.064 -1.07,-18.466 3.225,-24.971 6.358,-9.63 19.697,-14.721 38.576,-14.723 l 0.008,0 c 38.576,0 95.898,21.168 149.601,55.245 62.892,39.903 110.305,90.796 117.98,126.642 2.155,10.066 1.07,18.468 -3.226,24.974 C 32.216,-5.091 18.878,0 0,0 m -225.782,-225.583 -0.008,0 c -20.286,0.002 -34.78,5.714 -41.914,16.519 -4.908,7.435 -6.187,16.859 -3.798,28.013 3.857,18.016 17.067,39.67 38.201,62.62 21.483,23.328 49.681,46.346 81.548,66.565 C -97.448,-17.407 -39.3,4 0,4 c 20.286,0 34.778,-5.712 41.911,-16.519 4.909,-7.435 6.188,-16.86 3.799,-28.015 -3.857,-18.016 -17.067,-39.67 -38.2,-62.618 -21.483,-23.327 -49.681,-46.345 -81.548,-66.563 -54.305,-34.459 -112.451,-55.868 -151.744,-55.868"
                   style="fill:#000000;fill-opacity:1;fill-rule:nonzero;stroke:none"
                   id="path3600"
                   inkscape:connector-curvature="0" />
              </g>
            </g>
          </g>
        </g>
        <g
           id="g3602"
           transform="matrix(1.25,0,0,-1.25,-168.44759,839.3113)">
          <path
             d="m 0,0 c -38.583,0 -95.91,-21.168 -149.61,-55.243 -62.893,-39.904 -110.305,-90.799 -117.981,-126.645 -2.155,-10.065 -1.07,-18.466 3.225,-24.972 6.358,-9.63 19.698,-14.721 38.577,-14.723 l 0.009,0 c 38.576,-0.001 95.896,21.167 149.599,55.245 62.893,39.904 110.305,90.797 117.98,126.642 2.155,10.066 1.07,18.468 -3.226,24.974 C 32.216,-5.091 18.878,0 0,0 m -225.78,-225.583 -0.009,0 c -20.287,0.002 -34.781,5.714 -41.915,16.519 -4.908,7.435 -6.187,16.86 -3.798,28.013 3.857,18.017 17.067,39.671 38.201,62.62 21.483,23.329 49.682,46.347 81.548,66.565 C -97.448,-17.407 -39.3,4 0,4 c 20.286,0 34.778,-5.712 41.911,-16.519 4.909,-7.435 6.188,-16.86 3.799,-28.014 -3.857,-18.017 -17.067,-39.67 -38.2,-62.619 -21.483,-23.327 -49.681,-46.345 -81.548,-66.563 -54.304,-34.46 -112.449,-55.868 -151.742,-55.868"
             style="fill:#0a3d54;fill-opacity:1;fill-rule:nonzero;stroke:none"
             id="path3604"
             inkscape:connector-curvature="0" />
        </g>
        <g
           id="g3606"
           transform="matrix(1.25,0,0,-1.25,-824.05734,1531.3535)">
          <g
             id="g3608" />
          <g
             id="g3614">
            <g
               clip-path="url(#clipPath3610)"
               id="g3616"
               style="opacity:0.14999402">
              <g
                 transform="translate(386.6284,445.3018)"
                 id="g3618">
                <path
                   d="M 0,0 C 0,16.049 13.271,29.061 29.644,29.061 46.016,29.061 59.289,16.049 59.289,0 59.289,-16.049 46.016,-29.06 29.644,-29.06 13.271,-29.06 0,-16.049 0,0"
                   style="fill:#000000;fill-opacity:1;fill-rule:nonzero;stroke:none"
                   id="path3620"
                   inkscape:connector-curvature="0" />
              </g>
            </g>
          </g>
        </g>
        <g
           id="g3622"
           transform="matrix(1.25,0,0,-1.25,-346.61171,970.23292)">
          <path
             d="M 0,0 C 0,16.049 13.271,29.06 29.644,29.06 46.016,29.06 59.287,16.049 59.287,0 59.287,-16.05 46.016,-29.06 29.644,-29.06 13.271,-29.06 0,-16.05 0,0"
             style="fill:#ff7664;fill-opacity:1;fill-rule:nonzero;stroke:none"
             id="path3624"
             inkscape:connector-curvature="0" />
        </g>
        <g
           id="g3626"
           transform="matrix(1.25,0,0,-1.25,-824.05734,1531.3535)">
          <g
             id="g3628" />
          <g
             id="g3634">
            <g
               clip-path="url(#clipPath3630)"
               id="g3636"
               style="opacity:0.14999402">
              <g
                 transform="translate(552.0698,491.7754)"
                 id="g3638">
                <path
                   d="m 0,0 c 0,6.025 4.979,10.91 11.128,10.91 6.143,0 11.13,-4.885 11.13,-10.91 0,-6.025 -4.987,-10.911 -11.13,-10.911 C 4.979,-10.911 0,-6.025 0,0"
                   style="fill:#000000;fill-opacity:1;fill-rule:nonzero;stroke:none"
                   id="path3640"
                   inkscape:connector-curvature="0" />
              </g>
            </g>
          </g>
        </g>
        <g
           id="g3642"
           transform="matrix(1.25,0,0,-1.25,-139.81359,912.14155)">
          <path
             d="m 0,0 c 0,6.026 4.983,10.91 11.128,10.91 6.146,0 11.133,-4.884 11.133,-10.91 0,-6.025 -4.987,-10.911 -11.133,-10.911 C 4.983,-10.911 0,-6.025 0,0"
             style="fill:#66bee5;fill-opacity:1;fill-rule:nonzero;stroke:none"
             id="path3644"
             inkscape:connector-curvature="0" />
        </g>
        <g
           id="g3646"
           transform="matrix(1.25,0,0,-1.25,-824.05734,1531.3535)">
          <g
             id="g3648" />
          <g
             id="g3654">
            <g
               clip-path="url(#clipPath3650)"
               id="g3656"
               style="opacity:0.14999402">
              <g
                 transform="translate(491.1646,334.4751)"
                 id="g3658">
                <path
                   d="m 0,0 c 0,5.39 4.655,9.76 10.398,9.76 5.738,0 10.393,-4.37 10.393,-9.76 0,-5.39 -4.655,-9.759 -10.393,-9.759 C 4.655,-9.759 0,-5.39 0,0"
                   style="fill:#000000;fill-opacity:1;fill-rule:nonzero;stroke:none"
                   id="path3660"
                   inkscape:connector-curvature="0" />
              </g>
            </g>
          </g>
        </g>
        <g
           id="g3662"
           transform="matrix(1.25,0,0,-1.25,-207.60159,1111.0844)">
          <path
             d="M 0,0 C 0,5.39 4.653,9.76 10.396,9.76 16.136,9.76 20.79,5.39 20.79,0 20.79,-5.391 16.136,-9.758 10.396,-9.758 4.653,-9.758 0,-5.391 0,0"
             style="fill:#f0e160;fill-opacity:1;fill-rule:nonzero;stroke:none"
             id="path3664"
             inkscape:connector-curvature="0" />
        </g>
        <g
           id="g3666"
           transform="matrix(1.25,0,0,-1.25,-824.05734,1531.3535)">
          <g
             id="g3668" />
          <g
             id="g3674">
            <g
               clip-path="url(#clipPath3670)"
               id="g3676"
               style="opacity:0.14999402">
              <g
                 transform="translate(398.4165,613.707)"
                 id="g3678">
                <path
                   d="m 0,0 c 0,9.663 7.992,17.497 17.847,17.497 9.854,0 17.844,-7.834 17.844,-17.497 0,-9.662 -7.99,-17.495 -17.844,-17.495 C 7.992,-17.495 0,-9.662 0,0"
                   style="fill:#000000;fill-opacity:1;fill-rule:nonzero;stroke:none"
                   id="path3680"
                   inkscape:connector-curvature="0" />
              </g>
            </g>
          </g>
        </g>
        <g
           id="g3682"
           transform="matrix(1.25,0,0,-1.25,-331.87659,759.7263)">
          <path
             d="m 0,0 c 0,9.663 7.99,17.497 17.846,17.497 9.855,0 17.845,-7.834 17.845,-17.497 0,-9.662 -7.99,-17.495 -17.845,-17.495 C 7.99,-17.495 0,-9.662 0,0"
             style="fill:#49c47b;fill-opacity:1;fill-rule:nonzero;stroke:none"
             id="path3684"
             inkscape:connector-curvature="0" />
        </g>
      </g>
    </g>
  </g>
</svg>
