<?xml version="1.0" encoding="UTF-8" standalone="no"?>
<!-- Created with Inkscape (http://www.inkscape.org/) -->

<svg
   xmlns:dc="http://purl.org/dc/elements/1.1/"
   xmlns:cc="http://creativecommons.org/ns#"
   xmlns:rdf="http://www.w3.org/1999/02/22-rdf-syntax-ns#"
   xmlns:svg="http://www.w3.org/2000/svg"
   xmlns="http://www.w3.org/2000/svg"
   xmlns:sodipodi="http://sodipodi.sourceforge.net/DTD/sodipodi-0.dtd"
   xmlns:inkscape="http://www.inkscape.org/namespaces/inkscape"
   width="47.660831mm"
   height="51.31905mm"
   viewBox="0 0 168.87696 181.83915"
   id="svg10852"
   version="1.1"
   inkscape:version="0.91 r13725"
   sodipodi:docname="bloques.svg">
  <defs
     id="defs10854">
    <clipPath
       id="clipPath4756"
       clipPathUnits="userSpaceOnUse">
      <path
         inkscape:connector-curvature="0"
         id="path4758"
         d="m 139.077,313.498 131.602,0 0,-142.812 -131.602,0 0,142.812 z" />
    </clipPath>
  </defs>
  <sodipodi:namedview
     id="base"
     pagecolor="#ffffff"
     bordercolor="#666666"
     borderopacity="1.0"
     inkscape:pageopacity="0.0"
     inkscape:pageshadow="2"
     inkscape:zoom="0.35"
     inkscape:cx="918.00989"
     inkscape:cy="-429.08043"
     inkscape:document-units="px"
     inkscape:current-layer="layer1"
     showgrid="false"
     fit-margin-top="0"
     fit-margin-left="0"
     fit-margin-right="0"
     fit-margin-bottom="0"
     inkscape:window-width="1600"
     inkscape:window-height="837"
     inkscape:window-x="-8"
     inkscape:window-y="-8"
     inkscape:window-maximized="1" />
  <metadata
     id="metadata10857">
    <rdf:RDF>
      <cc:Work
         rdf:about="">
        <dc:format>image/svg+xml</dc:format>
        <dc:type
           rdf:resource="http://purl.org/dc/dcmitype/StillImage" />
        <dc:title></dc:title>
      </cc:Work>
    </rdf:RDF>
  </metadata>
  <g
     inkscape:label="Capa 1"
     inkscape:groupmode="layer"
     id="layer1"
     transform="translate(1070.1527,78.557369)">
    <g
       id="g9814"
       transform="translate(-1426.8823,-377.57141)">
      <g
         transform="matrix(1.25,0,0,-1.25,187.37123,694.21069)"
         id="g4752">
        <g
           id="g4754" />
        <g
           id="g4760">
          <g
             style="opacity:0.14999402"
             id="g4762"
             clip-path="url(#clipPath4756)">
            <g
               id="g4764"
               transform="translate(173.1055,280.0195)">
              <path
                 style="fill:#000000;fill-opacity:1;fill-rule:nonzero;stroke:none"
                 d="M 0,0 C 1.6328571,0.91849826 3.3858535,5.8419182 4.9073231,3.0472448 10.718215,-4.1398368 16.529108,-11.326918 22.34,-18.514 20.47443,-18.973012 18.039649,-22.91303 16.591762,-20.817712 11.061175,-13.878475 5.5305873,-6.9392375 0,0 Z"
                 id="path4766"
                 inkscape:connector-curvature="0" />
            </g>
            <g
               id="g4768"
               transform="translate(202.7612,186.3184)">
              <path
                 style="fill:#000000;fill-opacity:1;fill-rule:nonzero;stroke:none"
                 d="m 0,0 c -0.222,12.314667 -0.444,24.629333 -0.666,36.944 1.7695048,0.190549 5.4248909,3.218246 5.989539,1.59619 C 5.5413594,25.769127 5.7591797,12.998063 5.977,0.227 3.9846667,0.15133333 1.9923333,0.07566667 0,0 Z"
                 id="path4770"
                 inkscape:connector-curvature="0" />
            </g>
            <g
               id="g4772"
               transform="translate(243.1636,232.2266)">
              <path
                 style="fill:#000000;fill-opacity:1;fill-rule:nonzero;stroke:none"
                 d="m 0,0 c -7.3296667,0.80633333 -14.659333,1.6126667 -21.989,2.419 0.79823,1.8397096 -0.720793,6.5741845 2.235313,5.7182269 C -12.950125,7.3881513 -6.1465623,6.6390756 0.657,5.89 0.438,3.9266667 0.219,1.9633333 0,0 Z"
                 id="path4774"
                 inkscape:connector-curvature="0" />
            </g>
            <g
               id="g4776"
               transform="translate(218.4663,250.4883)">
              <path
                 style="fill:#000000;fill-opacity:1;fill-rule:nonzero;stroke:none"
                 d="M 0,0 C -0.8189228,1.6609413 -5.3876736,3.2775421 -3.4568386,4.9709983 5.5604409,14.050999 14.57772,23.130999 23.595,32.211 24.291156,30.422891 28.527892,28.495842 26.619915,26.809926 17.74661,17.873284 8.873305,8.9366419 0,0 Z"
                 id="path4778"
                 inkscape:connector-curvature="0" />
            </g>
            <g
               id="g4780"
               transform="translate(185.3804,229.4434)">
              <path
                 style="fill:#000000;fill-opacity:1;fill-rule:nonzero;stroke:none"
                 d="m 0,0 c -6.0846667,-3.3693333 -12.169333,-6.7386667 -18.254,-10.108 -0.427631,1.9559089 -4.439702,4.9251357 -1.528947,5.9372864 C -14.160965,-1.0571424 -8.5389824,2.0564288 -2.917,5.17 -1.9446667,3.4466667 -0.97233333,1.7233333 0,0 Z"
                 id="path4782"
                 inkscape:connector-curvature="0" />
            </g>
            <g
               id="g4784"
               transform="translate(165.4531,312.7471)">
              <path
                 style="fill:#000000;fill-opacity:1;fill-rule:nonzero;stroke:none"
                 d="M 0,0 C 12.126847,3.7688091 26.000054,-5.8764951 26.444561,-18.626945 27.693224,-31.271939 15.311322,-42.630238 2.8304844,-40.566312 -9.7280082,-39.374847 -18.752123,-25.249892 -14.280801,-13.388545 -12.124506,-6.9098141 -6.6007598,-1.7420871 0,0 Z"
                 id="path4786"
                 inkscape:connector-curvature="0" />
            </g>
            <g
               id="g4788"
               transform="translate(235.0894,282.7803)">
              <path
                 style="fill:#000000;fill-opacity:1;fill-rule:nonzero;stroke:none"
                 d="M 0,0 C -0.42328547,8.7831525 11.253285,14.162384 17.729691,8.2873323 24.385936,3.3855171 22.046359,-8.2346588 14.058365,-10.259999 7.3881785,-12.532237 -0.19482037,-7.0886852 0,0 Z"
                 id="path4790"
                 inkscape:connector-curvature="0" />
            </g>
            <g
               id="g4792"
               transform="translate(154.8091,203.2041)">
              <path
                 style="fill:#000000;fill-opacity:1;fill-rule:nonzero;stroke:none"
                 d="m 0,0 c -10.054653,-1.6676128 -18.974467,9.6986678 -14.731717,19.035427 3.396596,9.549 17.4582468,11.847125 23.7596701,3.931819 C 16.47593,14.890328 10.902451,0.92352381 0,0 Z"
                 id="path4794"
                 inkscape:connector-curvature="0" />
            </g>
            <g
               id="g4796"
               transform="translate(196.1782,181.5195)">
              <path
                 style="fill:#000000;fill-opacity:1;fill-rule:nonzero;stroke:none"
                 d="M 0,0 C -0.42657766,8.8587003 11.349812,14.280233 17.881765,8.3571987 24.593951,3.4142363 22.235098,-8.3064059 14.178463,-10.347057 7.4512005,-12.638315 -0.19674121,-7.1498639 0,0 Z"
                 id="path4798"
                 inkscape:connector-curvature="0" />
            </g>
            <g
               id="g4800"
               transform="translate(242.5093,233.3848)">
              <path
                 style="fill:#000000;fill-opacity:1;fill-rule:nonzero;stroke:none"
                 d="M 0,0 C -0.43553455,10.241299 12.047407,17.500076 20.798099,12.273223 29.935958,7.906797 30.640005,-6.3488488 21.959258,-11.577354 13.078952,-17.907669 -0.29748873,-10.988292 0,0 Z"
                 id="path4802"
                 inkscape:connector-curvature="0" />
            </g>
            <g
               id="g4804"
               transform="translate(178.3184,241.3115)">
              <path
                 style="fill:#000000;fill-opacity:1;fill-rule:nonzero;stroke:none"
                 d="M 0,0 C -0.45524545,14.699909 14.307606,27.089611 28.701452,24.405566 42.736015,22.709595 53.013148,7.4587515 49.033742,-6.1717148 45.751292,-20.453901 28.507572,-28.804862 15.213234,-22.749469 6.1836062,-19.069453 -0.12028116,-9.7832052 0,0 Z"
                 id="path4806"
                 inkscape:connector-curvature="0" />
            </g>
          </g>
        </g>
      </g>
      <g
         transform="matrix(1.25,0,0,-1.25,399.36833,340.95507)"
         id="g4808">
        <path
           style="fill:#0a3d54;fill-opacity:1;fill-rule:nonzero;stroke:none"
           d="M 0,0 C 1.6328601,0.91813264 3.3860481,5.8411344 4.9073496,3.0462662 10.718233,-4.1404892 16.529117,-11.327245 22.34,-18.514 20.474093,-18.973198 18.038891,-22.912615 16.590788,-20.817692 11.060525,-13.878461 5.5302627,-6.9392305 0,0 Z"
           id="path4810"
           inkscape:connector-curvature="0" />
      </g>
      <g
         transform="matrix(1.25,0,0,-1.25,436.43673,458.08156)"
         id="g4812">
        <path
           style="fill:#0a3d54;fill-opacity:1;fill-rule:nonzero;stroke:none"
           d="m 0,0 c -0.222,12.314333 -0.444,24.628667 -0.666,36.943 1.77004,0.191173 5.4252366,3.218593 5.9905187,1.59719 C 5.5420125,25.769127 5.7595062,12.998063 5.977,0.227 3.9846667,0.15133333 1.9923333,0.07566667 0,0 Z"
           id="path4814"
           inkscape:connector-curvature="0" />
      </g>
      <g
         transform="matrix(1.25,0,0,-1.25,486.94098,400.69632)"
         id="g4816">
        <path
           style="fill:#0a3d54;fill-opacity:1;fill-rule:nonzero;stroke:none"
           d="m 0,0 c -7.33,0.80633333 -14.66,1.6126667 -21.99,2.419 0.798852,1.8400439 -0.7186,6.5747543 2.237304,5.7191482 C -12.949464,7.3887655 -6.1462319,6.6393827 0.657,5.89 0.438,3.9266667 0.219,1.9633333 0,0 Z"
           id="path4818"
           inkscape:connector-curvature="0" />
      </g>
      <g
         transform="matrix(1.25,0,0,-1.25,456.06813,377.86794)"
         id="g4820">
        <path
           style="fill:#0a3d54;fill-opacity:1;fill-rule:nonzero;stroke:none"
           d="M 0,0 C -0.81825318,1.6606047 -5.3875292,3.2768793 -3.4558234,4.9699833 5.5617844,14.049989 14.579392,23.129994 23.597,32.21 24.292956,30.422231 28.530356,28.495615 26.621884,26.809956 17.747923,17.873304 8.8739614,8.9366521 0,0 Z"
           id="path4822"
           inkscape:connector-curvature="0" />
      </g>
      <g
         transform="matrix(1.25,0,0,-1.25,414.71073,404.17656)"
         id="g4824">
        <path
           style="fill:#0a3d54;fill-opacity:1;fill-rule:nonzero;stroke:none"
           d="m 0,0 c -6.0846667,-3.369 -12.169333,-6.738 -18.254,-10.107 -0.427626,1.9556145 -4.439894,4.9242809 -1.529012,5.9364029 C -14.161008,-1.0563981 -8.5390039,2.057801 -2.917,5.172 -1.9446667,3.448 -0.97233333,1.724 0,0 Z"
           id="path4826"
           inkscape:connector-curvature="0" />
      </g>
      <g
         transform="matrix(1.25,0,0,-1.25,389.80283,300.04569)"
         id="g4828">
        <path
           style="fill:#f0e160;fill-opacity:1;fill-rule:nonzero;stroke:none"
           d="M 0,0 C 12.127276,3.7690089 25.99878,-5.8779327 26.443893,-18.627904 27.693283,-31.272551 15.31116,-42.632189 2.8303437,-40.566609 -9.7280057,-39.374928 -18.752553,-25.250668 -14.280537,-13.389229 -12.1241,-6.9105781 -6.600797,-1.7423377 0,0 Z"
           id="path4830"
           inkscape:connector-curvature="0" />
      </g>
      <g
         transform="matrix(1.25,0,0,-1.25,476.84698,337.50419)"
         id="g4832">
        <path
           style="fill:#ff7664;fill-opacity:1;fill-rule:nonzero;stroke:none"
           d="M 0,0 C -0.42296594,8.7836599 11.254868,14.160451 17.731276,8.286739 24.388312,3.3856305 22.047989,-8.2344826 14.059993,-10.259092 7.3900682,-12.530637 -0.19493845,-7.0896326 0,0 Z"
           id="path4834"
           inkscape:connector-curvature="0" />
      </g>
      <g
         transform="matrix(1.25,0,0,-1.25,376.49663,436.97431)"
         id="g4836">
        <path
           style="fill:#49c47b;fill-opacity:1;fill-rule:nonzero;stroke:none"
           d="M 0,0 C -10.055563,-1.6685989 -18.97328,9.6987097 -14.73116,19.035427 -11.334419,28.584135 2.7271824,30.88275 9.0285137,22.967246 16.477233,14.889934 10.903513,0.92267001 0,0 Z"
           id="path4838"
           inkscape:connector-curvature="0" />
      </g>
      <g
         transform="matrix(1.25,0,0,-1.25,428.20793,464.08006)"
         id="g4840">
        <path
           style="fill:#ff755a;fill-opacity:1;fill-rule:nonzero;stroke:none"
           d="M 0,0 C -0.42696417,8.8592467 11.34995,14.279921 17.88218,8.3575217 24.593604,3.4145159 22.235776,-8.3068752 14.178834,-10.347143 7.451324,-12.638195 -0.19707012,-7.1505221 0,0 Z"
           id="path4842"
           inkscape:connector-curvature="0" />
      </g>
      <g
         transform="matrix(1.25,0,0,-1.25,486.1231,399.24856)"
         id="g4844">
        <path
           style="fill:#9491c6;fill-opacity:1;fill-rule:nonzero;stroke:none"
           d="M 0,0 C -0.43515601,10.24099 12.047287,17.500414 20.797985,12.273022 29.935135,7.9060341 30.63857,-6.3488344 21.959137,-11.578037 13.078271,-17.909418 -0.29741157,-10.988383 0,0 Z"
           id="path4846"
           inkscape:connector-curvature="0" />
      </g>
      <g
         transform="matrix(1.25,0,0,-1.25,405.88323,389.34006)"
         id="g4848">
        <path
           style="fill:#66bee5;fill-opacity:1;fill-rule:nonzero;stroke:none"
           d="M 0,0 C -0.45539641,14.700675 14.30929,27.088439 28.702965,24.40459 42.737073,22.708465 53.014288,7.4581578 49.034684,-6.1720485 45.752092,-20.454345 28.508513,-28.804683 15.214078,-22.749609 6.1837839,-19.070094 -0.12045329,-9.7836005 0,0 Z"
           id="path4850"
           inkscape:connector-curvature="0" />
      </g>
    </g>
  </g>
</svg>
